<svg height="512pt" viewBox="0 -12 512 512" width="512pt" xmlns="http://www.w3.org/2000/svg"><path d="m168.886719 70.539062c-76.160157 0-137.902344 61.742188-137.902344 137.902344s61.742187 137.898438 137.902344 137.898438c76.160156 0 137.898437-61.738282 137.898437-137.898438s-61.738281-137.902344-137.898437-137.902344zm0 242.019532c-57.503907 0-104.121094-46.613282-104.121094-104.121094 0-57.503906 46.617187-104.121094 104.121094-104.121094 57.503906 0 104.121093 46.617188 104.121093 104.121094 0 57.507812-46.617187 104.121094-104.121093 104.121094zm0 0" fill="#fdbd37"/><path d="m343.113281 70.539062c-33.042969 0-63.367187 11.628907-87.117187 31.007813 8.785156 7.171875 16.667968 15.402344 23.460937 24.5 17.601563-13.617187 39.679688-21.726563 63.65625-21.726563 57.503907 0 104.121094 46.617188 104.121094 104.121094s-46.617187 104.121094-104.121094 104.121094c-57.503906 0-104.121093-46.617188-104.121093-104.121094 0-21.058594 6.257812-40.652344 17.003906-57.035156-6.363282-9.703125-14.3125-18.273438-23.46875-25.359375-17.15625 22.988281-27.3125 51.503906-27.3125 82.394531 0 76.160156 61.738281 137.902344 137.898437 137.902344 76.160157 0 137.898438-61.742188 137.898438-137.902344.003906-76.160156-61.738281-137.902344-137.898438-137.902344zm0 0" fill="#fed15b"/><path d="m480.535156 363.691406h-449.070312v-34.546875c0-23.640625 19.164062-42.800781 42.800781-42.800781h363.46875c23.640625 0 42.800781 19.164062 42.800781 42.800781zm0 0" fill="#fc6a58"/><path d="m437.734375 286.339844h-50.289063c23.640626 0 42.804688 19.164062 42.804688 42.804687v34.546875h50.285156v-34.546875c0-23.640625-19.164062-42.804687-42.800781-42.804687zm0 0" fill="#e35052"/><path d="m382.910156 479.828125h-253.820312c-67.152344 0-121.589844-54.4375-121.589844-121.589844v-19.253906c0-8.085937 6.558594-14.644531 14.648438-14.644531h467.703124c8.089844 0 14.648438 6.558594 14.648438 14.644531v19.253906c0 67.152344-54.4375 121.589844-121.589844 121.589844zm0 0" fill="#545464"/><path d="m489.851562 324.339844h-35.207031v33.898437c0 67.152344-54.4375 121.589844-121.589843 121.589844h49.855468c67.152344 0 121.589844-54.4375 121.589844-121.589844v-19.253906c0-8.085937-6.558594-14.644531-14.648438-14.644531zm0 0" fill="#394856"/><path d="m343.113281 95.171875-58.511719-54.386719 22.351563-33.285156h72.324219l22.347656 33.285156zm0 0" fill="#d7dee3"/><path d="m284.601562 40.785156 22.351563-33.285156h72.324219l22.347656 33.285156zm0 0" fill="#b2b9bf"/><path d="m489.851562 316.839844h-3.335937c-3.117187-12.453125-10.804687-22.945313-21.109375-29.730469 15.144531-23.457031 23.109375-50.476563 23.109375-78.671875 0-65.746094-43.664063-122.453125-105.707031-139.921875l23.925781-22.238281c2.699219-2.511719 3.175781-6.613282 1.117187-9.675782l-22.347656-33.28125c-1.394531-2.074218-3.730468-3.320312-6.226562-3.320312h-72.324219c-2.5 0-4.835937 1.246094-6.226563 3.320312l-22.351562 33.28125c-2.054688 3.0625-1.582031 7.164063 1.121094 9.675782l23.9375 22.25c-5.296875 1.5-10.507813 3.300781-15.589844 5.390625-3.828125 1.574219-5.65625 5.960937-4.082031 9.789062 1.191406 2.898438 3.988281 4.648438 6.9375 4.648438.953125 0 1.917969-.179688 2.851562-.566407 7.425781-3.054687 15.152344-5.417968 23.023438-7.046874l17.667969 16.421874c-10.484376.824219-20.734376 3.109376-30.570313 6.828126-3.875 1.460937-5.828125 5.789062-4.363281 9.664062s5.792968 5.832031 9.667968 4.367188c10.894532-4.117188 22.378907-6.207032 34.136719-6.207032 53.277344 0 96.621094 43.34375 96.621094 96.621094 0 26.667969-11.066406 52.167969-30.457031 70.402344h-113.148438c11.914063-21.46875 18.15625-45.550782 18.15625-70.402344 0-80.171875-65.226562-145.398438-145.398437-145.398438s-145.402344 65.226563-145.402344 145.398438c0 28.195312 7.964844 55.214844 23.109375 78.671875-10.304688 6.785156-17.996094 17.277344-21.109375 29.730469h-3.335937c-12.210938 0-22.148438 9.933594-22.148438 22.144531v19.253906c0 71.179688 57.910156 129.089844 129.089844 129.089844h253.820312c71.179688 0 129.089844-57.910156 129.089844-129.089844v-19.253906c0-12.210937-9.9375-22.144531-22.148438-22.144531zm-186.164062-268.554688h78.855469l-39.429688 36.648438zm7.261719-33.285156h64.328125l12.277344 18.285156h-88.882813zm143.785156 193.4375c0-58.5625-45.335937-106.734375-102.753906-111.269531l17.671875-16.425781c60.402344 12.453124 103.859375 65.574218 103.859375 127.695312 0 26.007812-7.550781 50.898438-21.894531 72.339844-4.417969-1.261719-9.078126-1.9375-13.882813-1.9375h-8.019531c16.0625-19.765625 25.019531-44.609375 25.019531-70.402344zm-221.394531 70.402344c-13.507813-21.003906-20.625-45.261719-20.625-70.402344 0-15.777344 2.785156-31.191406 8.277344-45.824219 1.457031-3.875-.507813-8.203125-4.382813-9.65625-3.882813-1.457031-8.203125.507813-9.660156 4.382813-6.128907 16.324218-9.234375 33.515625-9.234375 51.097656 0 24.851562 6.242187 48.933594 18.15625 70.402344h-113.148438c-19.390625-18.234375-30.457031-43.734375-30.457031-70.402344 0-53.277344 43.34375-96.621094 96.621094-96.621094 53.277343 0 96.621093 43.34375 96.621093 96.621094 0 14.59375-3.253906 28.828125-9.488281 41.800781-6.199219-12.914062-9.527343-27.179687-9.527343-41.800781 0-10.964844 1.824218-21.726562 5.421874-31.976562 1.371094-3.910157-.6875-8.1875-4.59375-9.558594-3.910156-1.371094-8.1875.683594-9.5625 4.59375-4.15625 11.847656-6.265624 24.277344-6.265624 36.941406 0 25.792969 8.960937 50.636719 25.019531 70.402344zm-194.855469-70.402344c0-71.902344 58.5-130.398438 130.402344-130.398438 71.902343 0 130.398437 58.496094 130.398437 130.398438 0 25.140625-7.121094 49.398438-20.628906 70.402344h-1.707031c-4.4375-4.171875-8.4375-8.726563-11.96875-13.585938 10.171875-17.167968 15.527343-36.699218 15.527343-56.8125 0-61.550781-50.074218-111.621094-111.621093-111.621094s-111.621094 50.070313-111.621094 111.621094c0 25.789063 8.960937 50.632813 25.019531 70.402344h-8.019531c-4.804687 0-9.464844.671875-13.882813 1.933594-14.34375-21.441406-21.898437-46.332032-21.898437-72.339844zm458.515625 149.800781c0 62.910157-51.179688 114.089844-114.089844 114.089844h-253.820312c-62.910156 0-114.089844-51.179687-114.089844-114.089844v-19.253906c0-3.9375 3.207031-7.144531 7.148438-7.144531h39.847656c4.144531 0 7.5-3.359375 7.5-7.5 0-4.144532-3.355469-7.5-7.5-7.5h-20.832032c5.011719-13.558594 18.03125-23 33.101563-23h363.46875c15.070313 0 28.089844 9.441406 33.101563 23h-373.40625c-4.144532 0-7.5 3.355468-7.5 7.5 0 4.140625 3.355468 7.5 7.5 7.5h392.421874c3.941407 0 7.148438 3.207031 7.148438 7.144531zm0 0"/></svg>